<svg xmlns="http://www.w3.org/2000/svg" width="10" height="10" viewBox="0 0 10 10" fill="none">
  <g clip-path="url(#clip0_499_271)">
    <path d="M5 0.833448C5.55271 0.835262 6.09958 0.946673 6.60895 1.16123C7.11832 1.3758 7.58008 1.68925 7.9675 2.08345H6.66667C6.55616 2.08345 6.45018 2.12735 6.37204 2.20549C6.2939 2.28363 6.25 2.38961 6.25 2.50012C6.25 2.61062 6.2939 2.7166 6.37204 2.79474C6.45018 2.87288 6.55616 2.91678 6.66667 2.91678H8.39292C8.5981 2.91667 8.79484 2.83512 8.93992 2.69003C9.085 2.54495 9.16656 2.34821 9.16667 2.14303V0.416782C9.16667 0.306275 9.12277 0.200294 9.04463 0.122154C8.96649 0.0440137 8.86051 0.000114985 8.75 0.000114985C8.6395 0.000114985 8.53351 0.0440137 8.45537 0.122154C8.37724 0.200294 8.33334 0.306275 8.33334 0.416782V1.28262C7.64466 0.662387 6.79692 0.246119 5.88504 0.0804271C4.97317 -0.0852649 4.03318 0.00616163 3.17033 0.344468C2.30748 0.682775 1.55584 1.2546 0.999591 1.99592C0.443339 2.73723 0.104437 3.61876 0.0208363 4.54178C0.0154544 4.59981 0.0222179 4.65832 0.0406959 4.71358C0.0591739 4.76885 0.0889612 4.81966 0.12816 4.86278C0.167359 4.90589 0.215109 4.94037 0.268369 4.96402C0.321629 4.98767 0.37923 4.99996 0.437503 5.00012C0.539415 5.00141 0.638142 4.96463 0.714361 4.89697C0.790579 4.8293 0.838801 4.73563 0.849586 4.63428C0.942342 3.59709 1.41958 2.63207 2.18754 1.9288C2.9555 1.22552 3.95868 0.83482 5 0.833448Z" fill="#CD5F5B"/>
    <path d="M9.56283 5.00003C9.46092 4.99873 9.3622 5.03552 9.28598 5.10318C9.20976 5.17085 9.16154 5.26452 9.15075 5.36587C9.08187 6.15888 8.78697 6.9155 8.30102 7.54595C7.81508 8.17641 7.15849 8.65424 6.40915 8.92276C5.65981 9.19129 4.84917 9.23923 4.0734 9.06091C3.29763 8.88259 2.58929 8.48548 2.03242 7.9167H3.33325C3.44376 7.9167 3.54974 7.8728 3.62788 7.79466C3.70602 7.71652 3.74992 7.61054 3.74992 7.50003C3.74992 7.38953 3.70602 7.28355 3.62788 7.20541C3.54974 7.12727 3.44376 7.08337 3.33325 7.08337H1.607C1.50538 7.08331 1.40474 7.10329 1.31084 7.14215C1.21694 7.18102 1.13162 7.23801 1.05976 7.30987C0.987896 7.38173 0.930904 7.46705 0.892039 7.56095C0.853174 7.65485 0.833197 7.75549 0.833252 7.85712V9.58337C0.833252 9.69387 0.877151 9.79986 0.955291 9.878C1.03343 9.95614 1.13941 10 1.24992 10C1.36043 10 1.46641 9.95614 1.54455 9.878C1.62269 9.79986 1.66659 9.69387 1.66659 9.58337V8.71753C2.35526 9.33776 3.20301 9.75403 4.11488 9.91972C5.02675 10.0854 5.96674 9.99399 6.82959 9.65568C7.69244 9.31737 8.44408 8.74555 9.00033 8.00423C9.55658 7.26292 9.89548 6.38139 9.97908 5.45837C9.98447 5.40034 9.9777 5.34183 9.95922 5.28657C9.94075 5.2313 9.91096 5.18049 9.87176 5.13737C9.83256 5.09425 9.78481 5.05977 9.73155 5.03613C9.67829 5.01248 9.62111 5.00019 9.56283 5.00003Z" fill="#CD5F5B"/>
  </g>
  <defs>
    <clipPath id="clip0_499_271">
      <rect width="10" height="10" fill="white"/>
    </clipPath>
  </defs>
</svg>
