<svg xmlns="http://www.w3.org/2000/svg" width="10" height="10" viewBox="0 0 10 10" fill="none">
  <g clip-path="url(#clip0_499_274)">
    <path d="M8.74992 1.66667H7.45825C7.36154 1.19642 7.10568 0.773894 6.73377 0.470299C6.36187 0.166704 5.89667 0.000606052 5.41658 0L4.58325 0C4.10317 0.000606052 3.63797 0.166704 3.26606 0.470299C2.89416 0.773894 2.63829 1.19642 2.54159 1.66667H1.24992C1.13941 1.66667 1.03343 1.71057 0.955291 1.78871C0.877151 1.86685 0.833252 1.97283 0.833252 2.08333C0.833252 2.19384 0.877151 2.29982 0.955291 2.37796C1.03343 2.4561 1.13941 2.5 1.24992 2.5H1.66659V7.91667C1.66725 8.469 1.88695 8.99852 2.27751 9.38908C2.66807 9.77963 3.19759 9.99934 3.74992 10H6.24992C6.80225 9.99934 7.33177 9.77963 7.72233 9.38908C8.11288 8.99852 8.33259 8.469 8.33325 7.91667V2.5H8.74992C8.86042 2.5 8.96641 2.4561 9.04455 2.37796C9.12269 2.29982 9.16658 2.19384 9.16658 2.08333C9.16658 1.97283 9.12269 1.86685 9.04455 1.78871C8.96641 1.71057 8.86042 1.66667 8.74992 1.66667ZM4.58325 0.833333H5.41658C5.67503 0.833649 5.92705 0.913907 6.13809 1.0631C6.34913 1.2123 6.50884 1.42312 6.59534 1.66667H3.4045C3.49099 1.42312 3.65071 1.2123 3.86175 1.0631C4.07278 0.913907 4.3248 0.833649 4.58325 0.833333ZM7.49992 7.91667C7.49992 8.24819 7.36822 8.56613 7.1338 8.80055C6.89938 9.03497 6.58144 9.16667 6.24992 9.16667H3.74992C3.4184 9.16667 3.10046 9.03497 2.86604 8.80055C2.63161 8.56613 2.49992 8.24819 2.49992 7.91667V2.5H7.49992V7.91667Z" fill="#CD5F5B"/>
    <path d="M4.16667 7.49984C4.27717 7.49984 4.38315 7.45594 4.46129 7.3778C4.53943 7.29966 4.58333 7.19368 4.58333 7.08317V4.58317C4.58333 4.47266 4.53943 4.36668 4.46129 4.28854C4.38315 4.2104 4.27717 4.1665 4.16667 4.1665C4.05616 4.1665 3.95018 4.2104 3.87204 4.28854C3.7939 4.36668 3.75 4.47266 3.75 4.58317V7.08317C3.75 7.19368 3.7939 7.29966 3.87204 7.3778C3.95018 7.45594 4.05616 7.49984 4.16667 7.49984Z" fill="#CD5F5B"/>
    <path d="M5.83341 7.49984C5.94392 7.49984 6.0499 7.45594 6.12804 7.3778C6.20618 7.29966 6.25008 7.19368 6.25008 7.08317V4.58317C6.25008 4.47266 6.20618 4.36668 6.12804 4.28854C6.0499 4.2104 5.94392 4.1665 5.83341 4.1665C5.72291 4.1665 5.61693 4.2104 5.53879 4.28854C5.46065 4.36668 5.41675 4.47266 5.41675 4.58317V7.08317C5.41675 7.19368 5.46065 7.29966 5.53879 7.3778C5.61693 7.45594 5.72291 7.49984 5.83341 7.49984Z" fill="#CD5F5B"/>
  </g>
  <defs>
    <clipPath id="clip0_499_274">
      <rect width="10" height="10" fill="white"/>
    </clipPath>
  </defs>
</svg>
